<svg xmlns="http://www.w3.org/2000/svg" width="1024" height="1024" viewBox="0 0 1024 1024" version="1.1">
	<path d="M 307.500 238.559 C 291.558 242.039, 283.753 244.602, 273.653 249.674 C 232.755 270.214, 205.096 306.119, 194.816 352.011 C 192.891 360.608, 192.650 365.305, 192.259 402 C 191.668 457.470, 192.847 465.428, 205.591 491.944 C 217.920 517.597, 232.439 535.731, 252.978 551.128 C 272.042 565.420, 294.490 574.465, 320 578.134 C 334.766 580.257, 709.567 579.607, 722.465 577.436 C 758.592 571.352, 786.172 558.379, 808.366 537.029 C 816.857 528.861, 827.133 516.501, 832.493 508.012 C 837.343 500.328, 848.077 474.818, 850.714 464.705 C 853.340 454.637, 853.381 453.963, 853.773 414.500 C 854.040 387.680, 853.788 371.534, 853.009 365.500 C 848.365 329.526, 834.850 301.435, 810.652 277.459 C 789.234 256.237, 770.324 245.642, 741.500 238.713 L 732.500 236.549 525.500 236.354 L 318.500 236.158 307.500 238.559 M 326.867 266.106 C 313.525 267.467, 295.059 272.939, 284.093 278.781 C 269.064 286.788, 251.191 302.166, 245.776 311.750 C 244.144 314.637, 242.396 317, 241.892 317 C 241.387 317, 240.022 319.137, 238.858 321.750 C 237.694 324.363, 235.245 329.650, 233.415 333.500 C 229.657 341.408, 225.603 357.477, 223.893 371.240 C 222.271 384.294, 223.345 442.946, 225.380 452.500 C 233.178 489.109, 254.458 519.831, 282 534.242 C 296.979 542.079, 311.681 546.640, 326.500 548.045 C 337.729 549.110, 708.650 549.592, 715.500 548.550 C 740.377 544.769, 762.238 535.750, 779.500 522.148 C 797.553 507.922, 808.644 491.196, 817.398 465 C 822.627 449.351, 823.351 440.705, 822.677 401.935 C 822.034 364.914, 821.392 359.706, 815.448 343.286 C 810.663 330.069, 806.153 321.929, 796.659 309.376 C 780.194 287.607, 756.040 272.972, 727.452 267.443 C 720.500 266.098, 695.301 265.869, 527 265.616 C 421.125 265.457, 331.065 265.678, 326.867 266.106 M 704.718 294.041 C 699.054 295.450, 695.735 297.445, 691.796 301.805 C 687.099 307.003, 685.710 311.590, 686.157 320.431 C 686.608 329.360, 690.071 335.651, 697.258 340.590 C 708.038 347.999, 719.552 347.142, 728.816 338.239 C 735.234 332.071, 739.479 322.679, 738.574 316.647 C 737.165 307.246, 731.183 298.645, 723.957 295.626 C 719.283 293.674, 709.449 292.864, 704.718 294.041 M 313.384 306.860 C 311.120 307.917, 307.970 310.483, 306.384 312.562 C 303.528 316.305, 303.498 316.484, 303.308 331.298 C 303.202 339.525, 302.875 346.883, 302.581 347.650 C 302.149 348.774, 299.082 348.997, 286.773 348.797 C 268.234 348.496, 265.536 349.394, 260.948 357.393 C 255.554 366.797, 257.840 379.244, 265.972 384.750 C 269.071 386.848, 270.363 387, 285.076 387 C 298.089 387, 301.133 387.276, 302.429 388.571 C 303.708 389.851, 304 392.754, 304 404.203 C 304 419.965, 304.974 422.967, 311.374 426.922 C 319.305 431.823, 328.988 431.674, 335.943 426.542 C 342.452 421.740, 342.986 420.063, 342.993 404.405 C 342.999 392.256, 343.242 390.092, 344.750 388.728 C 346.153 387.460, 349.612 387.082, 362.187 386.823 C 377.865 386.500, 377.876 386.498, 380.831 383.665 C 384.261 380.375, 388 371.360, 388 366.379 C 388 362.218, 385.665 356.337, 382.805 353.293 C 379.641 349.925, 375.900 349.158, 359.541 348.523 C 349.411 348.130, 344.332 347.549, 343.807 346.721 C 343.380 346.050, 343.024 339.268, 343.015 331.651 C 342.998 315.571, 341.990 312.345, 335.684 308.172 C 330.308 304.615, 319.549 303.982, 313.384 306.860 M 463.848 338.018 C 460.024 340.038, 456.714 344.562, 455.599 349.290 C 454.709 353.069, 457.914 360.090, 461.790 362.850 C 468.554 367.667, 475.429 366.513, 481.920 359.471 C 485.328 355.773, 486 354.361, 486 350.890 C 486 345.341, 482.929 340.628, 477.647 338.071 C 472.379 335.521, 468.601 335.507, 463.848 338.018 M 511.500 337.164 C 507.702 339.260, 504.042 343.341, 502.924 346.730 C 499.579 356.866, 509.859 367.908, 520.156 365.239 C 522.107 364.734, 524.904 362.579, 527.342 359.702 C 530.718 355.719, 531.333 354.294, 531.333 350.458 C 531.333 340.677, 519.504 332.748, 511.500 337.164 M 557.841 337.344 C 548.622 341.441, 545.263 351.508, 550.529 359.257 C 553.801 364.073, 557.665 366, 564.049 366 C 568.564 366, 569.573 365.600, 572.252 362.750 C 580.005 354.500, 581.056 348.411, 575.766 342.386 C 570.587 336.488, 563.961 334.624, 557.841 337.344 M 649.909 342.489 C 647.384 343.302, 643.259 345.780, 640.743 347.995 C 634.597 353.405, 632 358.990, 632 366.795 C 632 378.448, 637.285 387.046, 647.557 392.103 C 653.313 394.936, 654.601 395.205, 659.618 394.615 C 668.607 393.559, 673.879 390.716, 679.131 384.092 C 684.890 376.829, 686.407 372.421, 685.727 364.926 C 684.830 355.033, 679.158 346.899, 670.536 343.140 C 665.928 341.131, 655.180 340.792, 649.909 342.489 M 757.424 341.879 C 744.401 345.253, 736.385 358.210, 738.951 371.739 C 742.202 388.884, 756.413 398.220, 772.251 393.615 C 778.501 391.798, 782.884 387.830, 788 379.356 C 791.153 374.134, 791.492 372.861, 791.424 366.529 C 791.306 355.695, 785.908 347.502, 776.213 343.440 C 771.806 341.594, 761.749 340.759, 757.424 341.879 M 702.054 393.728 C 695.331 396.101, 688.502 403.467, 686.436 410.572 C 683.926 419.205, 684.891 426.756, 689.365 433.494 C 696.684 444.517, 707.816 449.122, 719.382 445.911 C 728.070 443.499, 739 428.716, 739 419.378 C 739 412.077, 735.551 404.705, 729.586 399.252 C 726.665 396.583, 722.474 393.859, 720.272 393.200 C 714.914 391.594, 707.486 391.810, 702.054 393.728 M 414.500 406.021 C 393.155 409.825, 374.946 428.325, 373.307 447.873 C 371.156 473.536, 387.356 496.863, 411.240 502.494 C 428.388 506.537, 448.441 501.313, 459.046 490.040 C 465.418 483.266, 472.865 468.089, 474.270 459.012 C 477.344 439.152, 467.050 419.853, 448.715 411.102 C 438.670 406.309, 424.606 404.220, 414.500 406.021 M 592.634 406.519 C 579.102 409.950, 564.488 421.323, 559.439 432.353 C 550.828 451.162, 553.460 471.154, 566.731 487.745 C 576.103 499.462, 595.599 506.540, 611.504 503.999 C 622.670 502.216, 632.670 497.579, 638.585 491.443 C 648.522 481.134, 656 464.616, 656 452.977 C 656 443.049, 651.452 430.552, 645.021 422.813 C 641.050 418.033, 630.112 410.860, 622.500 408.044 C 614.689 405.155, 600.811 404.446, 592.634 406.519 M 414.370 432.440 C 412.649 433.190, 410.935 434.297, 410.561 434.901 C 410.188 435.506, 409.063 436, 408.062 436 C 406.943 436, 405.740 437.252, 404.939 439.250 C 404.222 441.038, 402.817 443.573, 401.817 444.885 C 396.147 452.326, 403.435 470.610, 414.276 476.141 C 425.771 482.005, 442.132 475.381, 446.461 463.110 C 450.904 450.519, 443.953 435.302, 432.277 432.060 C 427.068 430.613, 418.132 430.803, 414.370 432.440 M 594.388 433.070 C 588.530 435.324, 587.177 436.618, 583.591 443.399 C 579.227 451.651, 580.868 461.981, 587.836 470.122 C 596.148 479.832, 607.320 480.939, 619.170 473.228 C 631.318 465.323, 632.220 446.756, 620.951 436.575 C 614.499 430.746, 604.024 429.364, 594.388 433.070" stroke="none" fill="#000000" fill-rule="evenodd"/>
</svg>